<?xml version="1.0" encoding="utf-8"?>
<!-- Generator: Adobe Illustrator 25.1.0, SVG Export Plug-In . SVG Version: 6.00 Build 0)  -->
<svg version="1.1" id="Слой_1" xmlns="http://www.w3.org/2000/svg" xmlns:xlink="http://www.w3.org/1999/xlink" x="0px" y="0px"
	 viewBox="0 0 3000 3000" style="enable-background:new 0 0 3000 3000;" xml:space="preserve">
<style type="text/css">
	.st0{display:none;}
	.st1{fill:#FFFFFF;}
	.st2{fill:#FFFFFF;stroke:#FFFFFF;stroke-width:28;stroke-miterlimit:10;}
</style>
<g id="Слой_1_1_" class="st0">
</g>
<g id="Слой_2_1_">
	<g>
		<path class="st1" d="M1525.9,1240.1c-0.4-107.4-1-263.5-1.6-419.5c-0.1-33.1-0.4-66.2-0.6-99.3c-0.1-12.7-2.6-14.7-14.7-12.4
			c-27.9,5.3-48.7,20.5-62.3,45.4c-8,14.7-12.4,30.2-12.3,47.4c0.7,88.7,0.6,177.4,0.9,266.1c0.3,83.4,0.8,166.7,1.2,250.1
			c0,3,0,5.9,0,8.9c-0.2,11.9-8,17-19,12.5c-4-1.6-6-4.8-6.3-8.9c-0.3-3.5-0.2-7.1-0.2-10.6c0-125.1,0-250.1-0.1-375.2
			c0-4.1-0.1-8.4-1.3-12.2c-2.2-7.1-7.4-8.9-13.9-5.3c-7.6,4.3-11.1,11.2-12,19.6c-0.4,3.5-0.1,7.1-0.1,10.6
			c0,294.2,0,588.3,0,882.5c0,3.3,0.1,6.5-0.1,9.8c-0.6,7-4.1,11.1-11,11.7c-25.4,2.2-50.7,3.4-75.9-1.7c-2.9-0.6-5.8-1.3-8.5-2.3
			c-12-4.2-15.2-8.8-15.3-21.7c-0.2-47.6-0.4-95.2-0.5-142.8c-0.4-157-0.8-314-1.3-470.9c0-6.2,0-12.4-0.2-18.6
			c-0.3-10.1-5.1-16.6-15-17.7c-6.9-0.8-14.4-0.7-20.9,1.3c-8.9,2.8-17.5,7.2-25.5,12.1c-15.5,9.5-28.3,22.2-40.8,35.3
			c-3.7,3.9-5.2,8.3-5.2,13.6c0.4,58.8,0.7,117.7,1.1,176.5c0.2,29.3,0.3,58.5,0.4,87.8c0.2,68.3,0.4,136.6,0.7,204.9
			c0.1,32.2,0.5,64.4,0.7,96.7c0,2.7,0.1,5.3-0.2,8c-0.9,7-4.5,10.9-11.5,11.2c-23.9,1.3-47.9,2.2-71.4-3.6
			c-6.5-1.6-12.9-4.3-18.8-7.5c-7.8-4.3-11.8-11.2-11.6-20.5c0.2-7.7-0.1-15.4-0.1-23.1c-0.1-87.8-0.1-175.6-0.2-263.4
			c0-45.2-0.1-90.5-0.2-135.7c0-1.2,0-2.4,0-3.5c-0.3-11.2-3.3-13.7-14.2-11.6c-50.6,9.8-89,55.4-89.2,107
			c-0.1,43.1,0.8,86.3,1.2,129.5c0.4,43.5,0.6,86.9,1,130.4c0.3,29,0.4,57.9,1.2,86.9c0.3,9.5-3.6,15.4-11.7,18.7
			c-6.8,2.8-13.8,5.6-21,6.7c-14,2-28.1,3.2-42.3,4c-9.8,0.6-13.5-3.3-13.5-13.2c-0.1-28.4,0-56.8,0-85.1c0-3.8,0.3-7.7,0.3-11.5
			c0.1-94.6,0.2-189.2,0.2-283.8c0.1-58.2,0.1-116.5,0.2-174.7c0-2.7,0.2-5.3-0.1-8c-0.7-6.3-4.6-9.9-10.8-8.8
			c-35.2,6.4-63.5,23.4-81.7,55.1c-4.3,7.5-6,16-6,24.7c0.3,58.2,0.5,116.5,0.8,174.7c0.2,36.4,0.4,72.7,0.5,109.1
			c0.2,68,0.4,136,0.4,204c0,5.4-1.4,11.1-3.2,16.3c-2.2,6.3-7.2,10.7-13.2,13.7c-10.1,5-16.7,1-17.1-10.3c-0.1-2.1,0-4.1,0-6.2
			c0-167.9,0.1-335.8-0.1-503.8c0-18.4,5.7-34.2,16.3-48.6c14.2-19.3,33.2-32.8,54.4-43c12.7-6.1,26.2-10.9,39.4-15.9
			c9.8-3.8,19-2.1,27.8,3.6c33.9,22.1,68,44,101.9,66.2c17.8,11.7,36,22.7,55.5,31.3c22.2,9.8,45.3,15.3,69.6,14.8
			c6.2-0.1,12.4,0,18.6,0c12.5,0.1,16.7-3.8,16.8-16.1c0.1-27.8,0.4-55.6-0.2-83.4c-0.2-10.7,3.2-18.5,10.8-25.8
			c26.3-25.3,55.8-45.5,89.4-59.8c10.4-4.4,21-8,32.4-8.4c8.6-0.3,16.2,1.8,23.2,7.1c11.7,8.8,24.9,8,38.1,4.6
			c4.5-1.2,5.3-5,5.3-9.1c0-8.6,0.2-17.1,0.3-25.7c0.4-64.1,0.9-128.3,1-192.4c0-9.8,3-16.7,10.9-22.6c16.1-12.1,31.4-25,47.4-37.3
			c5.4-4.2,7.8-8.7,7.7-15.7c-0.3-33.4-0.1-66.8-0.2-100.2c0-5.9,1.4-10.9,4.8-15.7c23.1-32.4,53.1-54.3,92.8-61.6
			c31.4-5.8,61.2,0.1,89.4,14.3c29,14.6,52.9,35.5,73.8,60c4.5,5.2,6.1,11.2,6,18c-0.1,26.6-0.1,53.2-0.1,79.8
			c0,10.9,0.3,11.2,10.8,15.4c13,5.2,25.3,11.5,35.6,21.1c10.5,9.8,15.8,21.5,15.7,36.2c-0.3,50.3-0.2,100.5-0.1,150.8
			c0,20.7,10.1,35.4,28.3,44.6c12.7,6.4,26,6.4,38.5,0c8.8-4.5,17.2-10.4,24.7-16.9c18-15.8,35.1-32.6,53.1-48.4
			c11.5-10.1,23.6-19.7,36.1-28.6c7.1-5.1,15.4-8.6,23.6-12c8.6-3.6,17.7-3.9,26.9-1.7c28.7,7.2,56.7,16.3,83.1,30.1
			c12.3,6.5,24,14,33.9,24c10.9,11,16.1,23.8,16,39.8c-0.5,69.8-0.3,139.5-0.2,209.3c0,12.7,4.2,16.7,17.2,16.9
			c19.2,0.3,38.4,0.6,57.6,0.6c8.4,0,16.5,1.5,24.2,4.5c26.1,9.9,48.9,24.9,68,45.4c18,19.3,27.3,41.9,25.1,68.6
			c-0.4,4.4-0.3,8.9-0.3,13.3c0,140.4,0,280.9,0,421.3c0,22.5,0.3,44.9,0.3,67.4c0,3.5-0.1,7.1-0.5,10.6c-1.3,10.2-7.1,15.9-17.3,17
			c-1.5,0.2-3,0.2-4.4,0.2c-30.5,0-60.9,0.1-91.4,0c-9.7,0-12.7-3.1-13.1-12.7c-0.1-3,0-5.9,0-8.9c0-190.4,0-380.8,0-571.2
			c0-3.3,0.1-6.5-0.1-9.8c-0.5-8.2-4.2-11.6-12.5-11.4c-11.1,0.3-18.7,6.6-24.6,15.3c-6.5,9.5-10,20.3-10.8,31.6
			c-1.1,15.3-1.6,30.7-1.6,46c-0.1,38.4,0.2,76.9,0.3,115.3c0.1,52.6,0.3,105.2,0.4,157.9c0.2,76.3,0.5,152.5,0.7,228.8
			c0,0.9,0,1.8,0,2.7c0,14.7-1.6,16.7-16,16.8c-25.7,0.1-51.4,0.3-77.1-0.7c-12-0.4-24-2.9-35.9-5.1c-4.8-0.9-9.5-3.2-13.9-5.4
			c-4.2-2.1-6.6-5.8-6.4-10.8c0.1-2.4,0-4.7,0-7.1c0.1-166.4,0.1-332.9,0.2-499.3c0-93.1,0.1-186.2,0.2-279.4
			c0.1-38.1,0.2-76.3,0.3-114.4c0-1.5,0-3-0.1-4.4c-1.1-15.9-11.8-22.9-26.2-16.5c-7.5,3.3-14.8,7.6-21.1,12.8
			c-20.6,16.8-40.7,34.3-60.9,51.6c-4.9,4.2-7.5,9.7-7.6,16.4c-0.2,11.5-0.6,23.1-0.9,34.6c-0.2,7.2,2.4,13.2,7.6,18.2
			c11.6,11,22.8,22.4,34.5,33.2c5.1,4.8,8,10.1,7.5,17.1c-0.1,1.2,0,2.4,0,3.5c0.1,109.7,0.1,219.4,0.2,329.1
			c0.1,102.3,0.3,204.6,0.5,306.9c0,23.3,0.2,46.7,0.3,70.1c0,2.7,0.1,5.4-0.3,8c-1,5.4-4.4,8.5-9.8,8.4c-15-0.1-25.6-7.5-25.7-23.8
			c-0.3-85.4-1.2-170.9-1.6-256.3c-0.8-140.4-1.4-280.8-2.3-421.2c-0.1-7.9-1.3-15.9-3.1-23.6c-2.5-10.5-8.1-15.3-15.7-15.5
			c-9-0.2-17.3,6.3-19.9,16c-0.9,3.4-1,7-1,10.5c-0.1,30.5-0.2,60.9-0.2,91.4c-0.1,147.2-0.1,294.5-0.2,441.7
			c0,50.6-0.1,101.1-0.2,151.7c0,2.4,0.1,4.8-0.2,7.1c-0.8,5.7-3.4,8.7-9.1,9.1c-26.3,1.9-52.6,1.7-78.5-3.9
			c-5.1-1.1-10.1-3.3-14.8-5.6c-6-3-9.1-8-8.9-15.1c0.2-10.9-0.1-21.9-0.1-32.8c-0.2-78.3-0.3-156.7-0.5-235
			c-0.5-140.7-1-281.4-1.6-422.1c-0.3-86-0.9-172-1.3-258.1c-0.1-11.9-1.4-23.6-5.3-34.9c-1.5-4.1-3.2-8.4-5.8-11.8
			c-2.4-3.2-5.6-6.2-9.2-8c-10.5-5.2-19.2,0-19.7,11.7c-0.3,8.3-0.1,16.6-0.1,24.8c0,6.8,0.3,13.6,0.3,20.4
			c0.2,106.1,0.4,212.3,0.6,318.4c0.2,93.1,0.4,186.2,0.5,279.4c0.1,97,0.2,193.9,0.3,290.9c0,10,0.2,20.1,0.3,30.1
			c0,2.1,0.1,4.2-0.1,6.2c-0.7,8.9-5.7,12.8-14.3,10.7c-11.5-2.8-20.9-9-25.9-19.8c-3.4-7.4-5.3-15.6-7-23.6
			c-1.1-5.1-0.6-10.6-0.6-15.9c0-306.6,0-613.2,0-919.8c0-13.3,0.4-26.7-3.1-39.6c-1.4-5.1-3.5-10.1-5.9-14.7
			c-2.4-4.5-6.3-7.7-11.4-9.3c-10.1-3.1-16.1,1.2-16.3,11.8c-0.1,3,0,5.9,0,8.9c0,329.3,0,658.7,0,988c0,3.5,0.2,7.1-0.2,10.6
			c-0.8,6.5-5.1,9.9-11.6,9.3c-2.9-0.2-5.9-0.7-8.8-1.3c-22-5.3-28.4-16.4-28.4-34.6c-0.1-57.9-0.6-115.9-0.8-173.8
			C1527.4,1551.3,1526.8,1420,1525.9,1240.1z"/>
		<path class="st1" d="M2125.9,2228.3c-54.4-0.2-108.7-3.2-162.8-8.3c-138.9-13-275.4-39-410.6-72.6c-63.9-15.9-127.5-33.1-191.4-49
			c-78.6-19.6-158-35.2-238.1-47c-52.4-7.7-104.9-13.3-157.7-16.9c-59.6-4.1-119.3-5-179-2.8c-89.7,3.3-178.4,14.3-266,34.4
			c-2.9,0.7-5.7,1.4-8.7,1.9c-4.2,0.8-7.6-0.5-9.8-4.3c-2-3.7-1.2-7.8,2.9-10.9c5.4-4.2,11-8,16.7-11.6
			c26.7-16.8,55.6-28.7,85.5-38.3c40.9-13.2,82.8-21.5,125.4-27.1c63.8-8.4,127.8-10.1,192-8.2c45.2,1.4,90.3,4.8,135.2,9.7
			c158.1,16.9,312.9,50.6,466.3,91.8c57.3,15.4,114.5,31.4,172.1,45.7c72.6,18,146.2,31,220.3,40.7c98,12.9,196.5,19.2,295.3,16.9
			c87-2,173.4-10,258.7-27.8c9.5-2,19-4.3,28.5-6.4c2.6-0.6,5.2-1.2,7.8-1.4c4.6-0.3,8.2,2.3,9.6,6.3c1.4,4.1,0.2,8.2-3.5,11
			c-2.1,1.6-4.6,2.7-6.9,3.9c-38.8,20.1-80.1,33.5-122.4,43.7c-45.8,11-92.2,17.8-139.1,21.8
			C2206.3,2226.8,2166.1,2228.5,2125.9,2228.3z"/>
		<path class="st1" d="M976.7,1903c13.6,0,27.2-0.5,40.8,0.1c43.1,2,86.2,3.5,129.2,7c46.8,3.8,93.6,8.4,140.1,14.9
			c59.9,8.4,119.7,18.3,179.3,28.7c82.9,14.4,165.5,30.7,248.5,44.6c53.3,8.9,107,15.4,160.6,22.2c69.2,8.9,138.7,14.4,208.4,16.9
			c52.6,1.9,105.2,1.6,157.7-3.3c32.1-3,63.9-7.5,94.9-16.9c1.4-0.4,2.9-0.8,4.3-1c5.2-0.6,9,1.6,10.7,5.9c1.5,4,0.5,8.1-3.3,11
			c-2.3,1.8-4.9,3.2-7.5,4.7c-30.1,16.9-62.6,27.8-96,35.9c-47.5,11.6-95.9,17.2-144.7,19.8c-56.5,3.1-112.9,1.6-169.2-2.2
			c-55.4-3.8-110.6-10.2-165.6-18.3c-114.4-16.8-227-42-339.4-68.6c-49.1-11.6-99-19.6-148.8-28.1c-38.4-6.6-77-12.1-115.7-17.1
			c-34.6-4.5-69.3-7.9-103.9-11.5c-55.3-5.7-110.8-9-166.3-9.7c-37.2-0.5-74.4,1.1-111.6,2.4c-33.1,1.1-65.9,5-98.6,10.6
			c-1.2,0.2-2.4,0.3-3.5,0.3c-4.9,0-8.2-2.6-9.1-6.8c-0.9-4.4,1-8,5.7-9.7c5.9-2,11.9-3.4,17.9-4.8c40.9-9.4,82.3-15.9,124.1-20.2
			c48.3-5,96.6-7.3,145.1-7.4c5.3,0,10.6,0,15.9,0C976.8,1902.7,976.8,1902.9,976.7,1903z"/>
	</g>
	<path class="st2" d="M2668.6,1516.1c0,175.8,0,351.5,0,527.3c0,27.8-3.4,55.1-12.6,81.4c-19.4,55.4-54.4,98.3-105.1,127.9
		c-53.5,31.2-107.4,62.1-161,93c-253.1,146-506.2,292-759.2,438.2c-39.9,23.1-82.7,34.6-128.7,33.1c-39.3-1.3-76.1-11.9-110.2-31.6
		c-51.5-29.7-103-59.4-154.4-89.1c-255.5-147.5-511-294.9-766.5-442.4c-54.5-31.5-91.2-77.4-109.8-137.5c-7.3-23.4-10-47.6-10-72
		c0-193.3,0-386.6,0-580c0-159.2,0-318.3,0-477.5c0-51.4,14.2-98.3,44-140.3c19.7-27.7,44.3-50,73.8-67
		C640.9,680.4,813.1,581,985.3,481.6c134.5-77.6,269.1-155.2,403.6-232.9c26.2-15.1,54-25.7,84-30.2c54.9-8.3,106.7,1.1,154.9,28.7
		c54.2,31.1,108.2,62.4,162.3,93.6c252.5,145.7,504.9,291.4,757.4,437c58.7,33.9,96.9,83.4,114,149.1c5.4,20.5,7,41.5,7,62.6
		C2668.6,1165,2668.6,1340.6,2668.6,1516.1z M361.9,1515.9c0,176.2,0,352.5,0,528.7c0,17.4,1.2,34.6,5.1,51.6
		c15,65,51.1,114.8,108.9,148.2c207,119.6,414.1,239,621.2,358.5c99.7,57.5,199.1,115.7,299.2,172.4c75,42.5,151.2,41.8,226.8,0.3
		c13.7-7.5,27.2-15.6,40.7-23.5c293.4-169.3,587-338.3,880-508.1c74.7-43.3,113.4-110,113.5-196.2c0.7-354.3,0.3-708.7,0.1-1063
		c0-13.5-1-27.2-3.5-40.5c-13.1-69.1-50.4-121.5-111.2-156.7c-231.9-134-464-267.8-696-401.7c-74.2-42.8-148.4-85.5-222.5-128.4
		c-35.2-20.4-73-31.2-113.7-31.3c-41.4-0.1-79.9,10.7-115.7,31.5c-118.1,68.3-236.2,136.4-354.4,204.5
		C851.9,571.1,663.3,680,474.7,788.9c-34,19.6-61.1,46.2-81.1,79.9c-21.6,36.3-31.7,75.6-31.7,117.8
		C362,1163,361.9,1339.5,361.9,1515.9z"/>
</g>
</svg>
